<mxfile host="app.diagrams.net" agent="Mozilla/5.0 (Macintosh; Intel Mac OS X 10_15_7) AppleWebKit/537.36 (KHTML, like Gecko) Chrome/131.0.0.0 Safari/537.36" version="24.8.6">
  <diagram name="第 1 页" id="KhP_vrcC041Dozoehd5n">
    <mxGraphModel dx="984" dy="707" grid="1" gridSize="10" guides="1" tooltips="1" connect="1" arrows="1" fold="1" page="1" pageScale="1" pageWidth="827" pageHeight="1169" math="0" shadow="0">
      <root>
        <mxCell id="0" />
        <mxCell id="1" parent="0" />
        <mxCell id="y_jJ91WzIv8j6zjVebJz-33" value="" style="rounded=0;whiteSpace=wrap;html=1;dashed=1;dashPattern=8 8;fillColor=#ffe6cc;strokeColor=#d79b00;" vertex="1" parent="1">
          <mxGeometry x="100" y="980" width="720" height="620" as="geometry" />
        </mxCell>
        <mxCell id="y_jJ91WzIv8j6zjVebJz-20" value="" style="rounded=0;whiteSpace=wrap;html=1;dashed=1;dashPattern=8 8;fillColor=#d5e8d4;strokeColor=#82b366;" vertex="1" parent="1">
          <mxGeometry x="105" y="410" width="715" height="500" as="geometry" />
        </mxCell>
        <mxCell id="y_jJ91WzIv8j6zjVebJz-9" value="" style="rounded=0;whiteSpace=wrap;html=1;dashed=1;dashPattern=8 8;fillColor=#dae8fc;strokeColor=#6c8ebf;" vertex="1" parent="1">
          <mxGeometry x="110" y="20" width="710" height="360" as="geometry" />
        </mxCell>
        <mxCell id="y_jJ91WzIv8j6zjVebJz-15" style="edgeStyle=orthogonalEdgeStyle;rounded=0;orthogonalLoop=1;jettySize=auto;html=1;exitX=0.5;exitY=1;exitDx=0;exitDy=0;exitPerimeter=0;entryX=0.5;entryY=0;entryDx=0;entryDy=0;" edge="1" parent="1" source="y_jJ91WzIv8j6zjVebJz-2" target="y_jJ91WzIv8j6zjVebJz-14">
          <mxGeometry relative="1" as="geometry" />
        </mxCell>
        <mxCell id="y_jJ91WzIv8j6zjVebJz-2" value="RocketMq" style="shape=cylinder3;whiteSpace=wrap;html=1;boundedLbl=1;backgroundOutline=1;size=15;" vertex="1" parent="1">
          <mxGeometry x="410" y="270" width="60" height="80" as="geometry" />
        </mxCell>
        <mxCell id="y_jJ91WzIv8j6zjVebJz-3" value="业务服务1" style="rounded=1;whiteSpace=wrap;html=1;" vertex="1" parent="1">
          <mxGeometry x="190" y="90" width="120" height="60" as="geometry" />
        </mxCell>
        <mxCell id="y_jJ91WzIv8j6zjVebJz-7" style="edgeStyle=orthogonalEdgeStyle;rounded=0;orthogonalLoop=1;jettySize=auto;html=1;exitX=0.5;exitY=1;exitDx=0;exitDy=0;" edge="1" parent="1" source="y_jJ91WzIv8j6zjVebJz-4">
          <mxGeometry relative="1" as="geometry">
            <mxPoint x="440" y="270" as="targetPoint" />
          </mxGeometry>
        </mxCell>
        <mxCell id="y_jJ91WzIv8j6zjVebJz-11" value="发送消息" style="edgeLabel;html=1;align=center;verticalAlign=middle;resizable=0;points=[];" vertex="1" connectable="0" parent="y_jJ91WzIv8j6zjVebJz-7">
          <mxGeometry x="-0.0706" y="-4" relative="1" as="geometry">
            <mxPoint as="offset" />
          </mxGeometry>
        </mxCell>
        <mxCell id="y_jJ91WzIv8j6zjVebJz-4" value="业务服务2" style="rounded=1;whiteSpace=wrap;html=1;" vertex="1" parent="1">
          <mxGeometry x="380" y="90" width="120" height="60" as="geometry" />
        </mxCell>
        <mxCell id="y_jJ91WzIv8j6zjVebJz-5" value="业务服务3" style="rounded=1;whiteSpace=wrap;html=1;" vertex="1" parent="1">
          <mxGeometry x="580" y="90" width="120" height="60" as="geometry" />
        </mxCell>
        <mxCell id="y_jJ91WzIv8j6zjVebJz-6" style="edgeStyle=orthogonalEdgeStyle;rounded=0;orthogonalLoop=1;jettySize=auto;html=1;exitX=0.5;exitY=1;exitDx=0;exitDy=0;entryX=0.5;entryY=0;entryDx=0;entryDy=0;entryPerimeter=0;curved=1;" edge="1" parent="1" source="y_jJ91WzIv8j6zjVebJz-3" target="y_jJ91WzIv8j6zjVebJz-2">
          <mxGeometry relative="1" as="geometry" />
        </mxCell>
        <mxCell id="y_jJ91WzIv8j6zjVebJz-10" value="发送消息" style="edgeLabel;html=1;align=center;verticalAlign=middle;resizable=0;points=[];" vertex="1" connectable="0" parent="y_jJ91WzIv8j6zjVebJz-6">
          <mxGeometry x="0.0194" y="-2" relative="1" as="geometry">
            <mxPoint as="offset" />
          </mxGeometry>
        </mxCell>
        <mxCell id="y_jJ91WzIv8j6zjVebJz-8" style="edgeStyle=orthogonalEdgeStyle;rounded=0;orthogonalLoop=1;jettySize=auto;html=1;exitX=0.5;exitY=1;exitDx=0;exitDy=0;entryX=0.5;entryY=0;entryDx=0;entryDy=0;entryPerimeter=0;curved=1;" edge="1" parent="1" source="y_jJ91WzIv8j6zjVebJz-5" target="y_jJ91WzIv8j6zjVebJz-2">
          <mxGeometry relative="1" as="geometry" />
        </mxCell>
        <mxCell id="y_jJ91WzIv8j6zjVebJz-12" value="发送消息" style="edgeLabel;html=1;align=center;verticalAlign=middle;resizable=0;points=[];" vertex="1" connectable="0" parent="y_jJ91WzIv8j6zjVebJz-8">
          <mxGeometry x="-0.125" y="3" relative="1" as="geometry">
            <mxPoint as="offset" />
          </mxGeometry>
        </mxCell>
        <mxCell id="y_jJ91WzIv8j6zjVebJz-13" value="需要发送消息的服务按照规定的数据结构发送到RocketMQ" style="text;html=1;align=center;verticalAlign=middle;whiteSpace=wrap;rounded=0;" vertex="1" parent="1">
          <mxGeometry x="620" y="240" width="120" height="50" as="geometry" />
        </mxCell>
        <mxCell id="y_jJ91WzIv8j6zjVebJz-18" style="edgeStyle=orthogonalEdgeStyle;rounded=0;orthogonalLoop=1;jettySize=auto;html=1;exitX=0.5;exitY=1;exitDx=0;exitDy=0;entryX=0.5;entryY=0;entryDx=0;entryDy=0;" edge="1" parent="1" source="y_jJ91WzIv8j6zjVebJz-14" target="y_jJ91WzIv8j6zjVebJz-16">
          <mxGeometry relative="1" as="geometry" />
        </mxCell>
        <mxCell id="y_jJ91WzIv8j6zjVebJz-14" value="发送模块服务" style="rounded=1;whiteSpace=wrap;html=1;" vertex="1" parent="1">
          <mxGeometry x="380" y="430" width="120" height="60" as="geometry" />
        </mxCell>
        <mxCell id="y_jJ91WzIv8j6zjVebJz-53" style="edgeStyle=orthogonalEdgeStyle;rounded=0;orthogonalLoop=1;jettySize=auto;html=1;exitX=0.5;exitY=1;exitDx=0;exitDy=0;entryX=0.5;entryY=0;entryDx=0;entryDy=0;" edge="1" parent="1" source="y_jJ91WzIv8j6zjVebJz-16" target="y_jJ91WzIv8j6zjVebJz-51">
          <mxGeometry relative="1" as="geometry">
            <mxPoint x="440" y="620" as="targetPoint" />
          </mxGeometry>
        </mxCell>
        <mxCell id="y_jJ91WzIv8j6zjVebJz-16" value="解析数据" style="rounded=1;whiteSpace=wrap;html=1;" vertex="1" parent="1">
          <mxGeometry x="380" y="525" width="120" height="60" as="geometry" />
        </mxCell>
        <mxCell id="y_jJ91WzIv8j6zjVebJz-35" style="edgeStyle=orthogonalEdgeStyle;rounded=0;orthogonalLoop=1;jettySize=auto;html=1;exitX=0.5;exitY=1;exitDx=0;exitDy=0;exitPerimeter=0;entryX=0.5;entryY=0;entryDx=0;entryDy=0;" edge="1" parent="1" source="y_jJ91WzIv8j6zjVebJz-17" target="y_jJ91WzIv8j6zjVebJz-34">
          <mxGeometry relative="1" as="geometry" />
        </mxCell>
        <mxCell id="y_jJ91WzIv8j6zjVebJz-17" value="Redis" style="shape=cylinder3;whiteSpace=wrap;html=1;boundedLbl=1;backgroundOutline=1;size=15;" vertex="1" parent="1">
          <mxGeometry x="410" y="770" width="60" height="80" as="geometry" />
        </mxCell>
        <mxCell id="y_jJ91WzIv8j6zjVebJz-32" value="读取RocketMq消息，解析数据，根据用户区分队列类型，存入数据到Redis" style="text;html=1;align=center;verticalAlign=middle;whiteSpace=wrap;rounded=0;" vertex="1" parent="1">
          <mxGeometry x="650" y="437.5" width="140" height="87.5" as="geometry" />
        </mxCell>
        <mxCell id="y_jJ91WzIv8j6zjVebJz-37" value="" style="edgeStyle=orthogonalEdgeStyle;rounded=0;orthogonalLoop=1;jettySize=auto;html=1;" edge="1" parent="1" source="y_jJ91WzIv8j6zjVebJz-34" target="y_jJ91WzIv8j6zjVebJz-36">
          <mxGeometry relative="1" as="geometry" />
        </mxCell>
        <mxCell id="y_jJ91WzIv8j6zjVebJz-57" value="读取分片5-10" style="edgeLabel;html=1;align=center;verticalAlign=middle;resizable=0;points=[];" vertex="1" connectable="0" parent="y_jJ91WzIv8j6zjVebJz-37">
          <mxGeometry x="-0.4222" y="1" relative="1" as="geometry">
            <mxPoint as="offset" />
          </mxGeometry>
        </mxCell>
        <mxCell id="y_jJ91WzIv8j6zjVebJz-34" value="调度器(每隔50s)" style="rounded=1;whiteSpace=wrap;html=1;" vertex="1" parent="1">
          <mxGeometry x="380" y="1030" width="120" height="60" as="geometry" />
        </mxCell>
        <mxCell id="y_jJ91WzIv8j6zjVebJz-45" value="" style="edgeStyle=orthogonalEdgeStyle;rounded=0;orthogonalLoop=1;jettySize=auto;html=1;" edge="1" parent="1" source="y_jJ91WzIv8j6zjVebJz-36" target="y_jJ91WzIv8j6zjVebJz-44">
          <mxGeometry relative="1" as="geometry" />
        </mxCell>
        <mxCell id="y_jJ91WzIv8j6zjVebJz-36" value="从Redis中拉取间隔1s的一批用户" style="rounded=1;whiteSpace=wrap;html=1;" vertex="1" parent="1">
          <mxGeometry x="380" y="1180" width="120" height="60" as="geometry" />
        </mxCell>
        <mxCell id="y_jJ91WzIv8j6zjVebJz-43" style="edgeStyle=orthogonalEdgeStyle;rounded=0;orthogonalLoop=1;jettySize=auto;html=1;exitX=0.5;exitY=1;exitDx=0;exitDy=0;curved=1;" edge="1" parent="1" source="y_jJ91WzIv8j6zjVebJz-38">
          <mxGeometry relative="1" as="geometry">
            <mxPoint x="440" y="1180" as="targetPoint" />
          </mxGeometry>
        </mxCell>
        <mxCell id="y_jJ91WzIv8j6zjVebJz-56" value="读取分片1-5" style="edgeLabel;html=1;align=center;verticalAlign=middle;resizable=0;points=[];" vertex="1" connectable="0" parent="y_jJ91WzIv8j6zjVebJz-43">
          <mxGeometry x="-0.1351" y="3" relative="1" as="geometry">
            <mxPoint as="offset" />
          </mxGeometry>
        </mxCell>
        <mxCell id="y_jJ91WzIv8j6zjVebJz-38" value="调度器(每隔50s)" style="rounded=1;whiteSpace=wrap;html=1;" vertex="1" parent="1">
          <mxGeometry x="230" y="1030" width="120" height="60" as="geometry" />
        </mxCell>
        <mxCell id="y_jJ91WzIv8j6zjVebJz-42" style="edgeStyle=orthogonalEdgeStyle;rounded=0;orthogonalLoop=1;jettySize=auto;html=1;exitX=0.5;exitY=1;exitDx=0;exitDy=0;curved=1;" edge="1" parent="1" source="y_jJ91WzIv8j6zjVebJz-39">
          <mxGeometry relative="1" as="geometry">
            <mxPoint x="440" y="1180" as="targetPoint" />
          </mxGeometry>
        </mxCell>
        <mxCell id="y_jJ91WzIv8j6zjVebJz-58" value="读取分片10-n" style="edgeLabel;html=1;align=center;verticalAlign=middle;resizable=0;points=[];" vertex="1" connectable="0" parent="y_jJ91WzIv8j6zjVebJz-42">
          <mxGeometry x="-0.1017" y="4" relative="1" as="geometry">
            <mxPoint as="offset" />
          </mxGeometry>
        </mxCell>
        <mxCell id="y_jJ91WzIv8j6zjVebJz-39" value="调度器(每隔50s)" style="rounded=1;whiteSpace=wrap;html=1;" vertex="1" parent="1">
          <mxGeometry x="620" y="1030" width="120" height="60" as="geometry" />
        </mxCell>
        <mxCell id="y_jJ91WzIv8j6zjVebJz-40" value="。。。。。。" style="text;html=1;align=center;verticalAlign=middle;whiteSpace=wrap;rounded=0;" vertex="1" parent="1">
          <mxGeometry x="540" y="1045" width="60" height="30" as="geometry" />
        </mxCell>
        <mxCell id="y_jJ91WzIv8j6zjVebJz-47" value="" style="edgeStyle=orthogonalEdgeStyle;rounded=0;orthogonalLoop=1;jettySize=auto;html=1;" edge="1" parent="1" source="y_jJ91WzIv8j6zjVebJz-44" target="y_jJ91WzIv8j6zjVebJz-46">
          <mxGeometry relative="1" as="geometry" />
        </mxCell>
        <mxCell id="y_jJ91WzIv8j6zjVebJz-44" value="线程池" style="rounded=1;whiteSpace=wrap;html=1;" vertex="1" parent="1">
          <mxGeometry x="380" y="1280" width="120" height="60" as="geometry" />
        </mxCell>
        <mxCell id="y_jJ91WzIv8j6zjVebJz-49" value="" style="edgeStyle=orthogonalEdgeStyle;rounded=0;orthogonalLoop=1;jettySize=auto;html=1;" edge="1" parent="1" source="y_jJ91WzIv8j6zjVebJz-46" target="y_jJ91WzIv8j6zjVebJz-48">
          <mxGeometry relative="1" as="geometry" />
        </mxCell>
        <mxCell id="y_jJ91WzIv8j6zjVebJz-46" value="取待推送消息，移除Redis消息记录" style="rounded=1;whiteSpace=wrap;html=1;" vertex="1" parent="1">
          <mxGeometry x="380" y="1380" width="120" height="60" as="geometry" />
        </mxCell>
        <mxCell id="y_jJ91WzIv8j6zjVebJz-48" value="推送消息到对应的服务商" style="rounded=1;whiteSpace=wrap;html=1;" vertex="1" parent="1">
          <mxGeometry x="380" y="1480" width="120" height="60" as="geometry" />
        </mxCell>
        <mxCell id="y_jJ91WzIv8j6zjVebJz-51" value="根据接受用户wxi分片，存储消息id和用户关系" style="rounded=1;whiteSpace=wrap;html=1;" vertex="1" parent="1">
          <mxGeometry x="380" y="640" width="120" height="60" as="geometry" />
        </mxCell>
        <mxCell id="y_jJ91WzIv8j6zjVebJz-52" style="edgeStyle=orthogonalEdgeStyle;rounded=0;orthogonalLoop=1;jettySize=auto;html=1;exitX=0.5;exitY=1;exitDx=0;exitDy=0;entryX=0.5;entryY=0;entryDx=0;entryDy=0;entryPerimeter=0;" edge="1" parent="1" source="y_jJ91WzIv8j6zjVebJz-51" target="y_jJ91WzIv8j6zjVebJz-17">
          <mxGeometry relative="1" as="geometry" />
        </mxCell>
      </root>
    </mxGraphModel>
  </diagram>
</mxfile>
